<svg xmlns="http://www.w3.org/2000/svg" xmlns:xlink="http://www.w3.org/1999/xlink" id="Capa_1" x="0px" y="0px" viewBox="0 0 512 512" style="enable-background:new 0 0 512 512;" xml:space="preserve"><g>	<path style="fill:none;stroke:#000000;stroke-width:15;stroke-linecap:round;stroke-linejoin:round;stroke-miterlimit:10;" d="&#10;&#9;&#9;M361.19,59.77c-8.47-11.17-18.68-20.95-30.23-28.94"></path>	<path style="fill:none;stroke:#000000;stroke-width:15;stroke-linecap:round;stroke-linejoin:round;stroke-miterlimit:10;" d="&#10;&#9;&#9;M151.5,58.99C175.61,27.67,213.47,7.5,256.05,7.5c15.32,0,30.04,2.62,43.72,7.43"></path>	<g>					<line style="fill:none;stroke:#000000;stroke-width:15;stroke-linecap:round;stroke-linejoin:round;stroke-miterlimit:10;" x1="357.536" y1="435.725" x2="411.057" y2="445.93"></line>		<path style="fill:none;stroke:#000000;stroke-width:15;stroke-linecap:round;stroke-linejoin:round;stroke-miterlimit:10;" d="&#10;&#9;&#9;&#9;M312.975,392.512v16.458c0,3.676,0.906,7.171,2.524,10.252"></path>		<path style="fill:none;stroke:#000000;stroke-width:15;stroke-linecap:round;stroke-linejoin:round;stroke-miterlimit:10;" d="&#10;&#9;&#9;&#9;M196.468,419.223c1.618-3.081,2.525-6.577,2.525-10.253v-16.458"></path>					<line style="fill:none;stroke:#000000;stroke-width:15;stroke-linecap:round;stroke-linejoin:round;stroke-miterlimit:10;" x1="100.911" y1="445.93" x2="155.115" y2="435.595"></line>		<path style="fill:none;stroke:#000000;stroke-width:15;stroke-linecap:round;stroke-linejoin:round;stroke-miterlimit:10;" d="&#10;&#9;&#9;&#9;M176.21,456l-21.03-20.04l17.03-14.16c7.34-6.11,17.88-6.44,25.59-0.81l58.18,42.5l-16.61,22.75&#10;&#9;&#9;&#9;c-6.83,9.35-20.33,10.56-28.72,2.57l-8.92-8.5"></path>		<path style="fill:none;stroke:#000000;stroke-width:15;stroke-linecap:round;stroke-linejoin:round;stroke-miterlimit:10;" d="&#10;&#9;&#9;&#9;M301.318,488.712l55.466-53.191l-17.052-13.929c-7.336-5.993-17.794-6.276-25.443-0.688l-58.304,42.585l16.575,22.694&#10;&#9;&#9;&#9;C279.405,495.554,292.941,496.745,301.318,488.712z"></path>					<line style="fill:none;stroke:#000000;stroke-width:15;stroke-linecap:round;stroke-linejoin:round;stroke-miterlimit:10;" x1="255.984" y1="463.488" x2="255.984" y2="504.5"></line>	</g>			<line style="fill:none;stroke:#000000;stroke-width:15;stroke-linecap:round;stroke-linejoin:round;stroke-miterlimit:10;" x1="57.433" y1="338.298" x2="9.573" y2="504.5"></line>			<line style="fill:none;stroke:#000000;stroke-width:15;stroke-linecap:round;stroke-linejoin:round;stroke-miterlimit:10;" x1="419.509" y1="504.5" x2="411.444" y2="392.575"></line>			<line style="fill:none;stroke:#000000;stroke-width:15;stroke-linecap:round;stroke-linejoin:round;stroke-miterlimit:10;" x1="92.558" y1="504.5" x2="100.504" y2="394.219"></line>			<line style="fill:none;stroke:#000000;stroke-width:15;stroke-linecap:round;stroke-linejoin:round;stroke-miterlimit:10;" x1="454.567" y1="338.298" x2="502.427" y2="504.5"></line>	<path style="fill:none;stroke:#000000;stroke-width:15;stroke-linecap:round;stroke-linejoin:round;stroke-miterlimit:10;" d="&#10;&#9;&#9;M435.54,357.39V381c0,5.52-4.48,10-10,10H280.96"></path>	<path style="fill:none;stroke:#000000;stroke-width:15;stroke-linecap:round;stroke-linejoin:round;stroke-miterlimit:10;" d="&#10;&#9;&#9;M76.46,357.39V381c0,5.52,4.48,10,10,10h159.5"></path>			<line style="fill:none;stroke:#000000;stroke-width:15;stroke-linecap:round;stroke-linejoin:round;stroke-miterlimit:10;" x1="76.46" y1="236.95" x2="76.46" y2="128.94"></line>	<path style="fill:none;stroke:#000000;stroke-width:15;stroke-linecap:round;stroke-linejoin:round;stroke-miterlimit:10;" d="&#10;&#9;&#9;M76.46,93.94V70.37c0-5.52,4.48-10,10-10h339.08c5.52,0,10,4.48,10,10v167.04"></path>	<g>		<g>			<g>				<g>					<g>													<path style="fill:none;stroke:#000000;stroke-width:15;stroke-linecap:round;stroke-linejoin:round;stroke-miterlimit:10;" d="&#10;&#9;&#9;&#9;&#9;&#9;&#9;&#9;M255.925,285.219c-8.873,0-16.065-7.192-16.065-16.065v-43.918c0-8.873,7.192-16.065,16.065-16.065&#10;&#9;&#9;&#9;&#9;&#9;&#9;&#9;c10.194,0,19.682-4.079,26.714-11.486c7.027-7.401,10.604-17.108,10.074-27.335c-0.994-19.155-16.816-34.463-36.02-34.85&#10;&#9;&#9;&#9;&#9;&#9;&#9;&#9;c-18.63-0.382-34.678,13.24-37.25,31.673c-0.237,1.693-0.356,3.428-0.356,5.158c0,8.873-7.192,16.065-16.065,16.065&#10;&#9;&#9;&#9;&#9;&#9;&#9;&#9;s-16.065-7.192-16.065-16.065c0-3.211,0.224-6.44,0.664-9.6c4.821-34.543,34.777-60.055,69.72-59.356&#10;&#9;&#9;&#9;&#9;&#9;&#9;&#9;c35.965,0.724,65.597,29.411,67.459,65.308c0.993,19.112-5.705,37.268-18.859,51.123c-9.219,9.709-21.094,16.475-33.95,19.576&#10;&#9;&#9;&#9;&#9;&#9;&#9;&#9;v29.77C271.991,278.027,264.798,285.219,255.925,285.219z"></path>					</g>				</g>			</g>							<circle style="fill:none;stroke:#000000;stroke-width:15;stroke-linecap:round;stroke-linejoin:round;stroke-miterlimit:10;" cx="255.926" cy="331.938" r="16.065"></circle>		</g>	</g>	<g>		<path style="fill:none;stroke:#000000;stroke-width:15;stroke-linecap:round;stroke-linejoin:round;stroke-miterlimit:10;" d="&#10;&#9;&#9;&#9;M71.328,355.448l18.046,0.016c7.612,0.002,13.781-6.167,13.779-13.779c-0.002-7.612-6.175-13.785-13.787-13.787l16.015-0.036&#10;&#9;&#9;&#9;c8.089,0.002,14.644-6.553,14.642-14.642v0c-0.002-8.089-6.562-14.648-14.651-14.651l12.796,0.004&#10;&#9;&#9;&#9;c8.089,0.003,14.644-6.553,14.642-14.642v0c-0.002-8.089-6.562-14.648-14.651-14.651l-12.735-0.004h0&#10;&#9;&#9;&#9;c8.089,0.002,14.644-6.553,14.642-14.642c-0.002-8.089-6.562-14.648-14.651-14.651c-0.022,0-1.087-0.015-34.087-0.026"></path>					<line style="fill:none;stroke:#000000;stroke-width:15;stroke-linecap:round;stroke-linejoin:round;stroke-miterlimit:10;" x1="105.424" y1="269.276" x2="71.328" y2="269.276"></line>					<line style="fill:none;stroke:#000000;stroke-width:15;stroke-linecap:round;stroke-linejoin:round;stroke-miterlimit:10;" x1="105.372" y1="298.569" x2="71.328" y2="298.569"></line>					<line style="fill:none;stroke:#000000;stroke-width:15;stroke-linecap:round;stroke-linejoin:round;stroke-miterlimit:10;" x1="89.366" y1="327.897" x2="71.328" y2="327.897"></line>		<path style="fill:none;stroke:#000000;stroke-width:15;stroke-linecap:round;stroke-linejoin:round;stroke-miterlimit:10;" d="&#10;&#9;&#9;&#9;M71.328,269.276c-8.096,0-14.659-6.563-14.659-14.659c0-8.096,6.563-14.659,14.659-14.659"></path>		<path style="fill:none;stroke:#000000;stroke-width:15;stroke-linecap:round;stroke-linejoin:round;stroke-miterlimit:10;" d="&#10;&#9;&#9;&#9;M71.328,298.594c-8.096,0-14.659-6.563-14.659-14.659s6.563-14.659,14.659-14.659"></path>		<path style="fill:none;stroke:#000000;stroke-width:15;stroke-linecap:round;stroke-linejoin:round;stroke-miterlimit:10;" d="&#10;&#9;&#9;&#9;M71.328,327.887c-8.096,0-14.659-6.563-14.659-14.659s6.563-14.659,14.659-14.659"></path>		<path style="fill:none;stroke:#000000;stroke-width:15;stroke-linecap:round;stroke-linejoin:round;stroke-miterlimit:10;" d="&#10;&#9;&#9;&#9;M70.889,355.448c-7.611,0-13.78-6.17-13.78-13.78c0-7.611,6.17-13.78,13.78-13.78"></path>		<path style="fill:none;stroke:#000000;stroke-width:15;stroke-linecap:round;stroke-linejoin:round;stroke-miterlimit:10;" d="&#10;&#9;&#9;&#9;M440.672,355.448l-18.046,0.016c-7.612,0.002-13.781-6.167-13.779-13.779c0.002-7.612,6.175-13.785,13.787-13.787l-16.015-0.036&#10;&#9;&#9;&#9;c-8.089,0.002-14.644-6.553-14.642-14.642v0c0.002-8.089,6.562-14.648,14.651-14.651l-12.796,0.004&#10;&#9;&#9;&#9;c-8.089,0.003-14.644-6.553-14.642-14.642v0c0.002-8.089,6.562-14.648,14.651-14.651l12.735-0.004l0,0&#10;&#9;&#9;&#9;c-8.089,0.002-14.644-6.553-14.642-14.642c0.002-8.089,6.562-14.648,14.651-14.651c0.022,0,1.087-0.015,34.087-0.026"></path>					<line style="fill:none;stroke:#000000;stroke-width:15;stroke-linecap:round;stroke-linejoin:round;stroke-miterlimit:10;" x1="406.576" y1="269.276" x2="440.672" y2="269.276"></line>					<line style="fill:none;stroke:#000000;stroke-width:15;stroke-linecap:round;stroke-linejoin:round;stroke-miterlimit:10;" x1="406.628" y1="298.569" x2="440.672" y2="298.569"></line>					<line style="fill:none;stroke:#000000;stroke-width:15;stroke-linecap:round;stroke-linejoin:round;stroke-miterlimit:10;" x1="422.634" y1="327.897" x2="440.672" y2="327.897"></line>		<path style="fill:none;stroke:#000000;stroke-width:15;stroke-linecap:round;stroke-linejoin:round;stroke-miterlimit:10;" d="&#10;&#9;&#9;&#9;M440.672,269.276c8.096,0,14.659-6.563,14.659-14.659c0-8.096-6.563-14.659-14.659-14.659"></path>		<path style="fill:none;stroke:#000000;stroke-width:15;stroke-linecap:round;stroke-linejoin:round;stroke-miterlimit:10;" d="&#10;&#9;&#9;&#9;M440.672,298.594c8.096,0,14.659-6.563,14.659-14.659s-6.563-14.659-14.659-14.659"></path>		<path style="fill:none;stroke:#000000;stroke-width:15;stroke-linecap:round;stroke-linejoin:round;stroke-miterlimit:10;" d="&#10;&#9;&#9;&#9;M440.672,327.887c8.096,0,14.659-6.563,14.659-14.659s-6.563-14.659-14.659-14.659"></path>		<path style="fill:none;stroke:#000000;stroke-width:15;stroke-linecap:round;stroke-linejoin:round;stroke-miterlimit:10;" d="&#10;&#9;&#9;&#9;M441.111,355.448c7.611,0,13.78-6.17,13.78-13.78c0-7.611-6.17-13.78-13.78-13.78"></path>	</g></g><g></g><g></g><g></g><g></g><g></g><g></g><g></g><g></g><g></g><g></g><g></g><g></g><g></g><g></g><g></g></svg>