<svg xmlns="http://www.w3.org/2000/svg" xmlns:xlink="http://www.w3.org/1999/xlink" id="Capa_1" x="0px" y="0px" viewBox="0 0 512 512" style="enable-background:new 0 0 512 512;" xml:space="preserve"><g>	<g>		<g>			<path d="M503.467,469.329h-34.133v-34.133c0-18.821-15.308-34.133-34.133-34.133h-34.133V170.671    c0-79.992-65.075-145.067-145.067-145.067S110.933,90.679,110.933,170.671v230.392H76.8c-18.825,0-34.133,15.313-34.133,34.133    v34.133H8.533c-4.717,0-8.533,3.821-8.533,8.533c0,4.713,3.817,8.533,8.533,8.533h494.933c4.717,0,8.533-3.821,8.533-8.533    C512,473.15,508.183,469.329,503.467,469.329z M128,170.671c0-70.579,57.417-128,128-128s128,57.421,128,128v230.392H128V170.671    z M452.267,469.329H59.733v-34.133c0-9.413,7.658-17.067,17.067-17.067h358.4c9.408,0,17.067,7.654,17.067,17.067V469.329z"></path>			<path d="M324.267,204.783H187.733c-4.717,0-8.533,3.821-8.533,8.533s3.817,8.533,8.533,8.533h136.533    c4.717,0,8.533-3.821,8.533-8.533S328.983,204.783,324.267,204.783z"></path>			<path d="M324.267,162.092H187.733c-4.717,0-8.533,3.821-8.533,8.533c0,4.713,3.817,8.533,8.533,8.533h136.533    c4.717,0,8.533-3.821,8.533-8.533C332.8,165.912,328.983,162.092,324.267,162.092z"></path>		</g>	</g></g><g></g><g></g><g></g><g></g><g></g><g></g><g></g><g></g><g></g><g></g><g></g><g></g><g></g><g></g><g></g></svg>