<svg xmlns="http://www.w3.org/2000/svg" fill="none" height="512" viewBox="0 0 128 128" width="512"><g fill="rgb(0,0,0)"><path d="m51.8762 13.2231c-.8408-.3563-1.8163-.0978-2.3702.6283-.554.726-.5459 1.7351.0198 2.452 4.5671 5.7886 5.0889 11.0765 3.4652 16.2563-1.6857 5.3776-5.7218 10.754-10.6353 16.4068-1.4581 1.6776-2.9979 3.3835-4.5577 5.1116-3.5792 3.9653-7.2636 8.0472-10.3071 12.1695-4.3929 5.95-7.7809 12.3907-7.7809 19.39 0 17.9914 12.1999 28.8464 18.4308 32.0864.9799.509 2.1875.128 2.6971-.852s.1283-2.188-.8517-2.697c-5.3382-2.776-16.2762-12.469-16.2762-28.5374 0-5.7079 2.7726-11.2898 6.9988-17.0141 2.9235-3.9597 6.3852-7.7939 9.8989-11.6856 1.5934-1.7649 3.1976-3.5417 4.767-5.3473 4.9204-5.6609 9.4745-11.5862 11.4331-17.8345 1.3901-4.4345 1.4548-8.9714-.3926-13.5922 9.5236 6.2447 15.3567 16.1133 15.3567 24.9774 0 5.5877-2.046 8.9797-4.275 12.1685-2.4237 3.4672-4.9966 7.017-4.9966 11.5313 0 2.8041 1.4273 5.4709 3.4289 7.3916 2.0144 1.9331 4.8092 3.3067 7.8427 3.3067 4.3628 0 8.2202-1.6838 10.5345-5.0682 1.6277-2.3803 2.3593-5.407 2.1264-8.8962 1.4372 1.2008 2.9189 2.8064 4.3123 4.7726 2.5285 3.5678 4.6342 8.1412 5.5893 13.1483 1.8879 9.8977-.6832 21.5841-13.7662 30.8191-.9024.637-1.1176 1.885-.4806 2.788.637.902 1.8849 1.117 2.7873.48 14.4521-10.202 17.5501-23.5049 15.3891-34.8366-1.07-5.6076-3.4185-10.7088-6.2553-14.7116-2.8067-3.9603-6.2272-7.032-9.5641-8.3259-.703-.2726-1.4997-.1266-2.0604.3776s-.7901 1.2809-.5934 2.0089c1.2646 4.6797.6502 8.0173-.7862 10.1179-1.4187 2.0746-3.9002 3.3261-7.2327 3.3261-1.8257 0-3.6666-.843-5.0732-2.1928-1.4195-1.3622-2.1984-3.0445-2.1984-4.5055 0-3.1753 1.4997-5.8411 4.275-9.2396 2.4068-3.4432 4.9966-7.6593 4.9966-14.4602 0-12.5559-9.6658-25.8886-23.8957-31.9182z"></path><path d="m47.3673 78.1543c-.7211-.3051-1.5538-.1613-2.1309.3678s-.7924 1.3464-.5508 2.0911c1.4247 4.3932.5371 7.8868-1.2263 11.6995-1.0894 2.3554-2.3723 5.1293-2.3723 8.4203 0 8.099 6.6663 14.373 9.0692 16.631.781.781 2.0474.781 2.8284 0s.781-2.048 0-2.829c-2.5183-2.414-7.8976-7.581-7.8976-13.802 0-2.3308.8105-4.1036 1.8345-6.3431 1.393-3.0468 2.6996-7.015 2.5176-10.1731 3.613 3.3825 5.5176 8.914 5.5176 14.6314 0 3.0478 1.3177 5.4968 3.4018 7.0828 2.0391 1.552 4.6959 2.199 7.3475 1.98 3.5964-.298 7.2674-2.18 9.8037-5.731-.001 1.222-.1049 2.492-.3374 3.742-.697 3.748-2.4424 6.838-5.4452 8.208-1.0049.458-1.448 1.645-.9896 2.65.4585 1.005 1.6448 1.448 2.6497.989 4.6727-2.131 6.8998-6.717 7.7177-11.116.8181-4.399.3339-9.0973-.9005-12.1834-.3272-.8179-1.1511-1.3255-2.0288-1.2498s-1.6025.7168-1.7848 1.5787c-1.3044 6.1655-5.446 8.8305-9.0145 9.1265-1.8258.151-3.4612-.314-4.595-1.177-1.0888-.829-1.8246-2.1-1.8246-3.8998 0-8.2197-3.5418-17.2891-11.5894-20.6939z"></path></g></svg>