<svg xmlns="http://www.w3.org/2000/svg" xmlns:svg="http://www.w3.org/2000/svg" id="svg381" xml:space="preserve" width="682.66669" height="682.66669" viewBox="0 0 682.66669 682.66669"><defs id="defs385"><clipPath clipPathUnits="userSpaceOnUse" id="clipPath395"><path d="M 0,512 H 512 V 0 H 0 Z" id="path393"></path></clipPath></defs><g id="g387" transform="matrix(1.3333333,0,0,-1.3333333,0,682.66667)"><g id="g389"><g id="g391" clip-path="url(#clipPath395)"><g id="g397" transform="translate(335.25,474.5)"><path d="m 0,0 c 0.74,-17.17 4.23,-40.36 15.6,-65.13 24.23,-52.74 67.93,-77.02 82.59,-84.37 h -354.88 c 14.66,7.35 58.36,31.63 82.59,84.37 11.37,24.77 14.86,47.96 15.6,65.13" style="fill:none;stroke:#000000;stroke-width:15;stroke-linecap:round;stroke-linejoin:round;stroke-miterlimit:10;stroke-dasharray:none;stroke-opacity:1" id="path399"></path></g><g id="g401" transform="translate(354,7.5)"><path d="m 0,0 h -196 c -2.762,0 -5,2.239 -5,5 0,16.568 13.432,30 30,30 H -25 C -8.432,35 5,21.568 5,5 5,2.239 2.762,0 0,0 Z" style="fill:none;stroke:#000000;stroke-width:15;stroke-linecap:round;stroke-linejoin:round;stroke-miterlimit:10;stroke-dasharray:none;stroke-opacity:1" id="path403"></path></g><g id="g405" transform="translate(165.5,474.5)"><path d="m 0,0 h 181 c 8.284,0 15,6.716 15,15 0,8.284 -6.716,15 -15,15 H 0 C -8.284,30 -15,23.284 -15,15 -15,6.716 -8.284,0 0,0 Z" style="fill:none;stroke:#000000;stroke-width:15;stroke-linecap:round;stroke-linejoin:round;stroke-miterlimit:10;stroke-dasharray:none;stroke-opacity:1" id="path407"></path></g><g id="g409" transform="translate(329,42.5)"><path d="m 0,0 v 0 h -146 c -67.344,77.38 -104.437,176.501 -104.437,279.082 v 3.418 h 354.874 v -3.418 C 104.437,176.501 67.344,77.38 0,0 Z" style="fill:none;stroke:#000000;stroke-width:15;stroke-linecap:round;stroke-linejoin:round;stroke-miterlimit:10;stroke-dasharray:none;stroke-opacity:1" id="path411"></path></g><g id="g413" transform="translate(424.5303,235)"><path d="M 0,0 H -337.061" style="fill:none;stroke:#000000;stroke-width:15;stroke-linecap:round;stroke-linejoin:round;stroke-miterlimit:10;stroke-dasharray:none;stroke-opacity:1" id="path415"></path></g><g id="g417" transform="translate(108.5635,235)"><path d="m 0,0 v 56 c 0,2.209 1.791,4 4,4 h 43.218 c 2.21,0 4,-1.791 4,-4 V 32.48 c 0,-2.209 -1.79,-4 -4,-4 L 30,28.48" style="fill:none;stroke:#000000;stroke-width:15;stroke-linecap:round;stroke-linejoin:round;stroke-miterlimit:10;stroke-dasharray:none;stroke-opacity:1" id="path419"></path></g><g id="g421" transform="translate(189.7812,235)"><path d="m 0,0 v 56 c 0,2.209 1.791,4 4,4 h 43.219 c 2.209,0 4,-1.791 4,-4 V 32.48 c 0,-2.209 -1.791,-4 -4,-4 L 30,28.48" style="fill:none;stroke:#000000;stroke-width:15;stroke-linecap:round;stroke-linejoin:round;stroke-miterlimit:10;stroke-dasharray:none;stroke-opacity:1" id="path423"></path></g><g id="g425" transform="translate(271,235)"><path d="m 0,0 v 56 c 0,2.209 1.791,4 4,4 h 43.219 c 2.209,0 4,-1.791 4,-4 V 32.48 c 0,-2.209 -1.791,-4 -4,-4 L 30,28.48" style="fill:none;stroke:#000000;stroke-width:15;stroke-linecap:round;stroke-linejoin:round;stroke-miterlimit:10;stroke-dasharray:none;stroke-opacity:1" id="path427"></path></g><g id="g429" transform="translate(352.2187,235)"><path d="m 0,0 v 56 c 0,2.209 1.79,4 4,4 h 43.218 c 2.209,0 4,-1.791 4,-4 V 32.48 c 0,-2.209 -1.791,-4 -4,-4 L 30,28.48" style="fill:none;stroke:#000000;stroke-width:15;stroke-linecap:round;stroke-linejoin:round;stroke-miterlimit:10;stroke-dasharray:none;stroke-opacity:1" id="path431"></path></g><g id="g433" transform="translate(128.502,121.688)"><path d="M 0,0 H 179.557" style="fill:none;stroke:#000000;stroke-width:15;stroke-linecap:round;stroke-linejoin:round;stroke-miterlimit:10;stroke-dasharray:none;stroke-opacity:1" id="path435"></path></g><g id="g437" transform="translate(399.7744,155.812)"><path d="M 0,0 H -287.549" style="fill:none;stroke:#000000;stroke-width:15;stroke-linecap:round;stroke-linejoin:round;stroke-miterlimit:10;stroke-dasharray:none;stroke-opacity:1" id="path439"></path></g><g id="g441" transform="translate(343.0586,121.688)"><path d="M 0,0 H 40.439" style="fill:none;stroke:#000000;stroke-width:15;stroke-linecap:round;stroke-linejoin:round;stroke-miterlimit:10;stroke-dasharray:none;stroke-opacity:1" id="path443"></path></g><g id="g445" transform="translate(243.4521,437.498)"><path d="M 0,0 H 97.35" style="fill:none;stroke:#000000;stroke-width:15;stroke-linecap:round;stroke-linejoin:round;stroke-miterlimit:10;stroke-dasharray:none;stroke-opacity:1" id="path447"></path></g><g id="g449" transform="translate(171.1953,437.498)"><path d="M 0,0 H 37.257" style="fill:none;stroke:#000000;stroke-width:15;stroke-linecap:round;stroke-linejoin:round;stroke-miterlimit:10;stroke-dasharray:none;stroke-opacity:1" id="path451"></path></g></g></g></g></svg>